<?xml version="1.0" encoding="iso-8859-1"?>
<!-- Uploaded to: SVG Repo, www.svgrepo.com, Generator: SVG Repo Mixer Tools -->
<svg height="800px" width="800px" version="1.1" id="Layer_1" xmlns="http://www.w3.org/2000/svg" xmlns:xlink="http://www.w3.org/1999/xlink" 
	 viewBox="0 0 512.001 512.001" xml:space="preserve">
<path style="fill:#ED732F;" d="M10.458,181.666L10.458,181.666c0-91.23,73.957-165.186,165.185-165.186h44.05
	c91.23,0,165.185,73.957,165.185,165.185l0,0c0,30.41-24.651,55.061-55.061,55.061h-42.948H65.52
	C35.11,236.728,10.458,212.076,10.458,181.666z"/>
<path style="fill:#FFE48D;" d="M153.333,236.728c-17.599,70.787-28.961,161.674-28.961,185.493
	c0,40.481,32.816,73.298,73.298,73.298s73.298-32.816,73.298-73.298c0-23.819-11.362-114.707-28.961-185.493L153.333,236.728
	L153.333,236.728z"/>
<path style="fill:#ED732F;" d="M333.149,354.367L333.149,354.367c0-41.029,33.261-74.291,74.29-74.291h19.811
	c41.029,0,74.29,33.261,74.29,74.29l0,0c0,13.676-11.087,24.763-24.763,24.763h-19.316h-99.549
	C344.236,379.13,333.149,368.043,333.149,354.367z"/>
<path style="fill:#FFE48D;" d="M397.405,379.13c-7.915,31.835-13.025,72.712-13.025,83.423c0,18.206,14.759,32.965,32.965,32.965
	s32.965-14.759,32.965-32.965c0-10.713-5.11-51.588-13.025-83.423H397.405z"/>
<path d="M329.817,247.186c36.129,0,65.52-29.392,65.52-65.52c0-96.85-78.794-175.643-175.643-175.643h-44.05
	C78.794,6.023,0,84.815,0,181.666c0,36.127,29.392,65.52,65.52,65.52h74.554C124,316.761,113.912,399.519,113.912,422.221
	c0,46.183,37.573,83.755,83.756,83.755s83.756-37.573,83.756-83.755c0-22.703-10.088-105.462-26.163-175.035L329.817,247.186
	L329.817,247.186z M20.917,181.666c0-85.316,69.41-154.727,154.727-154.727h44.05c85.316,0,154.727,69.41,154.727,154.727
	c0,24.595-20.009,44.603-44.603,44.603H65.52C40.926,226.269,20.917,206.26,20.917,181.666z M260.508,422.222
	c0,34.65-28.19,62.838-62.839,62.838s-62.839-28.19-62.839-62.838c0-22.388,10.342-106.042,26.724-175.035h72.229
	C250.165,316.178,260.508,399.833,260.508,422.222z"/>
<path d="M212.088,76.543h0.244c5.775,0,10.458-4.682,10.458-10.458c0-5.776-4.683-10.458-10.458-10.458h-0.244
	c-5.775,0-10.458,4.682-10.458,10.458S206.313,76.543,212.088,76.543z"/>
<path d="M187.708,65.722c-0.276-5.769-5.15-10.215-10.946-9.947c-64.035,3.06-114.193,52.467-114.193,112.48
	c0,5.776,4.683,10.458,10.458,10.458c5.775,0,10.458-4.682,10.458-10.458c0-48.831,41.411-89.061,94.276-91.587
	C183.531,76.392,187.984,71.491,187.708,65.722z"/>
<path d="M168.801,334.412c-5.679-1.045-11.131,2.723-12.17,8.404c-5.38,29.398-8.71,58.415-8.71,68.442
	c0,5.776,4.683,10.458,10.458,10.458c5.775,0,10.458-4.682,10.458-10.458c0-7.944,2.907-34.84,8.369-64.676
	C178.247,340.901,174.483,335.452,168.801,334.412z"/>
<path d="M171.665,322.117c0.749,0.162,1.496,0.241,2.232,0.241c4.724,0,8.985-3.22,10.147-7.968
	c1.401-5.539-1.908-11.19-7.445-12.667c-5.575-1.488-11.311,1.829-12.799,7.41c-0.042,0.157-0.098,0.384-0.132,0.543
	C162.439,315.321,166.02,320.891,171.665,322.117z M174.028,311.862L174.028,311.862l-0.124-0.033L174.028,311.862z"/>
<path d="M427.249,269.617h-19.81c-46.731,0-84.749,38.018-84.749,84.75c0,19.421,15.799,35.222,35.222,35.222h26.352
	c-6.483,30.292-10.343,63.021-10.343,72.966c0,23.943,19.48,43.423,43.424,43.423c23.943,0,43.423-19.48,43.423-43.423
	c0-9.947-3.859-42.678-10.343-72.966h26.353c19.421,0,35.223-15.801,35.223-35.222C512,307.636,473.981,269.617,427.249,269.617z
	 M439.851,462.554c0,12.41-10.095,22.506-22.506,22.506c-12.411,0-22.507-10.097-22.507-22.506c0-8.345,4.052-42.752,10.841-72.966
	h23.331C435.799,419.799,439.851,454.207,439.851,462.554z M476.777,368.671H357.912c-7.888,0-14.305-6.417-14.305-14.305
	c0-35.198,28.635-63.833,63.832-63.833h19.81c35.198,0,63.833,28.635,63.833,63.833
	C491.083,362.255,484.666,368.671,476.777,368.671z"/>
<path d="M405.033,301.382c-26.496,1.267-47.253,21.89-47.253,46.953c0,5.776,4.683,10.458,10.458,10.458
	c5.775,0,10.458-4.682,10.458-10.458c0-13.88,12.006-25.327,27.335-26.059c5.77-0.276,10.222-5.177,9.947-10.946
	C415.703,305.561,410.819,301.101,405.033,301.382z"/>
</svg>